# xmcd
#
# Track frame offsets: 
#        150
#        11525
#        26215
#        35907
#        37342
#        50600
#        63278
#        75264
#        87595
#        98441
#        115291
#        124970
#        138128
#        153478
#        166803
#        177916
#        191077
#        204774
#        219211
#        231306
#        240880
#
# Disc length: 3384 seconds
#
# Revision: 0
# Processed by: cddbd v1.5.2PL0 Copyright (c) Steve Scherf et al.
# Submitted via: ExactAudioCopyFreeDBPlugin 1.0
#
DISCID=150d3615
DTITLE=The Abbott Family Band - Live and Picking
DYEAR=2011
DGENRE=Bluegrass
TTITLE0=Shady Grove
TTITLE1=Picture on the Wall
TTITLE2=Girl on the Greenbrier Shore
TTITLE3=Band Introductions
TTITLE4=Short Life of Trouble
TTITLE5=Don't This Road Look Rough and Rocky
TTITLE6=Keep Your Lamp Trimmed and Burning
TTITLE7=Tom Dooley
TTITLE8=Cluck Old Hen
TTITLE9=Pretty Saro
TTITLE10=A Beautiful Life
TTITLE11=Little Bessie
TTITLE12=I Am a Pilgrim
TTITLE13=My Native Home
TTITLE14=Johnson Boys
TTITLE15=Oh Death
TTITLE16=Bring Back to Me My Wandering Boy
TTITLE17=Snow Dove
TTITLE18=Do You Call That Religion
TTITLE19=Walk in Jerusalem
TTITLE20=Foggy Mountain Top
EXTD=
EXTT0=
EXTT1=
EXTT2=
EXTT3=
EXTT4=
EXTT5=
EXTT6=
EXTT7=
EXTT8=
EXTT9=
EXTT10=
EXTT11=
EXTT12=
EXTT13=
EXTT14=
EXTT15=
EXTT16=
EXTT17=
EXTT18=
EXTT19=
EXTT20=
PLAYORDER=
